# xmcd
#
# Track frame offsets: 
#        150
#        14480
#        26342
#        43965
#        64932
#        78027
#        103185
#        114455
#        139460
#        160930
#        174205
#        190182
#
# Disc length: 2799 seconds
#
# Revision: 5
# Processed by: cddbd v1.5.2PL0 Copyright (c) Steve Scherf et al.
# Submitted via: ExactAudioCopy v0.99pb5
#
DISCID=9c0aed0c
DTITLE=John Mayall - Empty Rooms
DYEAR=1969
DGENRE=Blues-Rock
TTITLE0=Don´t Waste My Time
TTITLE1=Plan Your Revolution
TTITLE2=Don't Pick A Flower
TTITLE3=Something New
TTITLE4=People Cling Together
TTITLE5=Waiting For The Right Time
TTITLE6=Thinking Of My Woman
TTITLE7=Counting The Days
TTITLE8=When I Go
TTITLE9=Many Miles Apart
TTITLE10=To A Princess
TTITLE11=Lying In My Bed
EXTD=
EXTT0=
EXTT1=
EXTT2=
EXTT3=
EXTT4=
EXTT5=
EXTT6=
EXTT7=
EXTT8=
EXTT9=
EXTT10=
EXTT11=
PLAYORDER=
